<svg width="32" height="32" viewBox="0 0 32 32" fill="none" xmlns="http://www.w3.org/2000/svg">
<path d="M23.7076 4.22982C22.0662 1.68699 19.2303 0.00292969 16 0.00292969C12.7697 0.00292969 9.93379 1.68699 8.29241 4.22982C3.63862 4.68987 0 8.65467 0 13.4782C0 17.5462 2.58759 21.0035 6.19034 22.261L6.88828 31.0299C6.93241 31.5791 7.38483 32.0029 7.93103 32.0029H24.069C24.6152 32.0029 25.0676 31.5791 25.1117 31.0299L25.8097 22.261C29.4124 21.0008 32 17.5462 32 13.4782C32 8.65467 28.3614 4.68708 23.7076 4.22982ZM14.9545 27.7147C14.9545 28.2974 14.4855 28.7714 13.909 28.7714C13.3324 28.7714 12.8634 28.2974 12.8634 27.7147V23.3177C12.8634 22.735 13.3324 22.261 13.909 22.261C14.4855 22.261 14.9545 22.735 14.9545 23.3177V27.7147ZM19.1366 27.7147C19.1366 28.2974 18.6676 28.7714 18.091 28.7714C17.5145 28.7714 17.0455 28.2974 17.0455 27.7147V23.3177C17.0455 22.735 17.5145 22.261 18.091 22.261C18.6676 22.261 19.1366 22.735 19.1366 23.3177V27.7147ZM21.8207 16.6149C21.8207 18.483 20.3228 19.997 18.4745 19.997C17.4924 19.997 16.6097 19.5704 15.9972 18.8901C15.3848 19.5704 14.5021 19.997 13.52 19.997C11.6717 19.997 10.1738 18.483 10.1738 16.6149C10.1738 15.6223 10.5959 14.7301 11.269 14.1111C10.5959 13.4922 10.1738 12.5999 10.1738 11.6074C10.1738 9.73927 11.6717 8.22529 13.52 8.22529C14.5021 8.22529 15.3848 8.65188 15.9972 9.3322C16.6097 8.65188 17.4924 8.22529 18.4745 8.22529C20.3228 8.22529 21.8207 9.73927 21.8207 11.6074C21.8207 12.5999 21.3986 13.4922 20.7255 14.1111C21.3986 14.7301 21.8207 15.6223 21.8207 16.6149Z" fill="#F96258"/>
<path d="M18.4748 19.9963C20.323 19.9963 21.821 18.4823 21.821 16.6143C21.821 15.6217 21.3989 14.7294 20.7258 14.1105C21.3989 13.4915 21.821 12.5993 21.821 11.6067C21.821 9.7386 20.323 8.22461 18.4748 8.22461C17.4927 8.22461 16.6099 8.6512 15.9975 9.33152C15.3851 8.6512 14.5023 8.22461 13.5203 8.22461C11.672 8.22461 10.1741 9.7386 10.1741 11.6067C10.1741 12.5993 10.5961 13.4915 11.2692 14.1105C10.5961 14.7294 10.1741 15.6217 10.1741 16.6143C10.1741 18.4823 11.672 19.9963 13.5203 19.9963C14.5023 19.9963 15.3851 19.5697 15.9975 18.8894C16.6099 19.5697 17.4927 19.9963 18.4748 19.9963Z" fill="white"/>
</svg>
