<svg width="100" height="100" viewBox="0 0 100 100" fill="none" xmlns="http://www.w3.org/2000/svg">
<g clip-path="url(#clip0_70_9451)">
<rect width="100" height="100" rx="50" fill="#F8F8F8"/>
<rect x="-6" y="8" width="113" height="84" fill="#F8F8F8"/>
<path d="M60.148 36.4445H39.4073C37.7709 36.4445 36.4443 37.771 36.4443 39.4074V60.1482C36.4443 61.7846 37.7709 63.1111 39.4073 63.1111H60.148C61.7844 63.1111 63.111 61.7846 63.111 60.1482V39.4074C63.111 37.771 61.7844 36.4445 60.148 36.4445Z" fill="#A4A4A4"/>
<path d="M44.2222 45.3334C45.4495 45.3334 46.4444 44.3384 46.4444 43.1111C46.4444 41.8838 45.4495 40.8889 44.2222 40.8889C42.9949 40.8889 42 41.8838 42 43.1111C42 44.3384 42.9949 45.3334 44.2222 45.3334Z" fill="#F8F8F8"/>
<path d="M60.3333 58.6667H39.2222L45.4984 50.1111L47.7807 53.1667L52.3453 46.4445L60.3333 58.6667Z" fill="#F8F8F8"/>
<path d="M63.1108 70.5187C67.2018 70.5187 70.5182 67.2023 70.5182 63.1113C70.5182 59.0203 67.2018 55.7039 63.1108 55.7039C59.0198 55.7039 55.7034 59.0203 55.7034 63.1113C55.7034 67.2023 59.0198 70.5187 63.1108 70.5187Z" fill="#7C7C7C" stroke="#F8F8F8" stroke-linecap="round" stroke-linejoin="round"/>
<path d="M63.1111 60.1483V66.0742" stroke="#F8F8F8" stroke-width="1.5" stroke-linecap="round" stroke-linejoin="round"/>
<path d="M60.1477 63.1111H66.0736" stroke="#F8F8F8" stroke-width="1.5" stroke-linecap="round" stroke-linejoin="round"/>
</g>
<defs>
<clipPath id="clip0_70_9451">
<rect width="100" height="100" rx="50" fill="white"/>
</clipPath>
</defs>
</svg>
