<svg width="30" height="31" viewBox="0 0 30 31" fill="none" xmlns="http://www.w3.org/2000/svg">
<rect y="0.201172" width="30" height="30" rx="15" fill="#787880" fill-opacity="0.12"/>
<path d="M9.92188 20.6543C9.79167 20.5241 9.70573 20.373 9.66406 20.2012C9.6224 20.0241 9.6224 19.8496 9.66406 19.6777C9.70573 19.5059 9.78906 19.3574 9.91406 19.2324L13.5781 15.5684L9.91406 11.9121C9.78906 11.7871 9.70573 11.6387 9.66406 11.4668C9.6224 11.2949 9.6224 11.123 9.66406 10.9512C9.70573 10.7741 9.79167 10.6204 9.92188 10.4902C10.0469 10.3652 10.1953 10.2819 10.3672 10.2402C10.5443 10.1934 10.7188 10.1934 10.8906 10.2402C11.0677 10.2819 11.2188 10.3626 11.3438 10.4824L15 14.1465L18.6641 10.4902C18.7891 10.3652 18.9349 10.2819 19.1016 10.2402C19.2734 10.1934 19.4453 10.1934 19.6172 10.2402C19.7943 10.2819 19.9453 10.3678 20.0703 10.498C20.2057 10.623 20.2943 10.7741 20.3359 10.9512C20.3776 11.123 20.3776 11.2949 20.3359 11.4668C20.2943 11.6387 20.2083 11.7871 20.0781 11.9121L16.4297 15.5684L20.0781 19.2324C20.2083 19.3574 20.2943 19.5059 20.3359 19.6777C20.3776 19.8496 20.3776 20.0241 20.3359 20.2012C20.2943 20.373 20.2057 20.5215 20.0703 20.6465C19.9453 20.7767 19.7943 20.8652 19.6172 20.9121C19.4453 20.9538 19.2734 20.9538 19.1016 20.9121C18.9349 20.8704 18.7891 20.7845 18.6641 20.6543L15 16.998L11.3438 20.6621C11.2188 20.7819 11.0677 20.8652 10.8906 20.9121C10.7188 20.9538 10.5443 20.9538 10.3672 20.9121C10.1953 20.8652 10.0469 20.7793 9.92188 20.6543Z" fill="#3C3C43" fill-opacity="0.6"/>
</svg>
