<svg width="32" height="32" viewBox="0 0 32 32" fill="none" xmlns="http://www.w3.org/2000/svg">
<path d="M28.9895 16C30.8391 14.3177 32 11.8942 32 9.19532C32 4.1156 27.8844 0 22.8047 0C20.109 0 17.6823 1.16089 16 3.01045C14.3177 1.16089 11.8942 0 9.19533 0C4.1156 0 0 4.1156 0 9.19532C0 11.891 1.16089 14.3177 3.01045 16C1.16089 17.6823 0 20.1058 0 22.8047C0 27.8844 4.1156 32 9.19533 32C11.891 32 14.3177 30.8391 16 28.9895C17.6823 30.8391 20.1058 32 22.8047 32C27.8844 32 32 27.8844 32 22.8047C32 20.109 30.8391 17.6823 28.9895 16Z" fill="#F96258"/>
</svg>
