<svg width="24" height="24" viewBox="0 0 24 24" fill="none" xmlns="http://www.w3.org/2000/svg">
<path fill-rule="evenodd" clip-rule="evenodd" d="M21.2388 14.4057C21.7413 13.3073 22 12.1301 22 10.9413H12L2 10.9413C2 12.1301 2.25866 13.3073 2.7612 14.4057C3.26375 15.504 4.00035 16.502 4.92893 17.3427C5.69734 18.0383 6.58477 18.6149 7.55556 19.051V21.0001H16.4444V19.051C17.4152 18.6149 18.3027 18.0383 19.0711 17.3427C19.9997 16.502 20.7362 15.504 21.2388 14.4057Z" fill="#F96258" stroke="#F96258" stroke-width="1.5" stroke-linecap="round" stroke-linejoin="round"/>
<path d="M19.7777 7.58823C19.7777 7.06405 19.666 6.545 19.4488 6.06072C19.2317 5.57643 18.9134 5.1364 18.5121 4.76575C18.1109 4.3951 17.6346 4.10108 17.1103 3.90048C16.8787 3.81184 16.6397 3.74221 16.3961 3.6921C16.254 3.50594 16.0947 3.33092 15.9195 3.16911C15.5183 2.79846 15.042 2.50444 14.5177 2.30384C13.9935 2.10325 13.4316 2 12.8641 2C12.2967 2 11.7348 2.10325 11.2106 2.30384C10.6863 2.50444 10.21 2.79846 9.80874 3.16911C9.64145 3.32365 9.48858 3.49026 9.35144 3.6671C9.08564 3.62034 8.81504 3.59664 8.54316 3.59664C7.97572 3.59664 7.41383 3.69988 6.88959 3.90048C6.36534 4.10108 5.889 4.3951 5.48776 4.76575C5.08652 5.1364 4.76823 5.57643 4.55108 6.06072C4.33393 6.545 4.22217 7.06405 4.22217 7.58823L19.7777 7.58823Z" fill="#F96258" stroke="#F96258" stroke-width="1.5" stroke-linecap="round" stroke-linejoin="round"/>
</svg>
