<svg width="24" height="24" viewBox="0 0 24 24" fill="none" xmlns="http://www.w3.org/2000/svg">
<path d="M21 22V19.6667C21 18.429 20.5259 17.242 19.682 16.3668C18.8381 15.4917 17.6935 15 16.5 15H7.5C6.30653 15 5.16193 15.4917 4.31802 16.3668C3.47411 17.242 3 18.429 3 19.6667V22" fill="#F96258"/>
<path d="M21 22V19.6667C21 18.429 20.5259 17.242 19.682 16.3668C18.8381 15.4917 17.6935 15 16.5 15H7.5C6.30653 15 5.16193 15.4917 4.31802 16.3668C3.47411 17.242 3 18.429 3 19.6667V22H21Z" stroke="#F96258" stroke-width="1.5" stroke-linecap="round" stroke-linejoin="round"/>
<path d="M12 12C14.7614 12 17 9.76142 17 7C17 4.23858 14.7614 2 12 2C9.23858 2 7 4.23858 7 7C7 9.76142 9.23858 12 12 12Z" fill="#F96258" stroke="#F96258" stroke-width="1.5" stroke-linecap="round" stroke-linejoin="round"/>
</svg>
