<svg width="40" height="41" viewBox="0 0 40 41" fill="none" xmlns="http://www.w3.org/2000/svg">
<path d="M26.7037 3.5H5.96296C4.32656 3.5 3 4.82656 3 6.46296V27.2037C3 28.8401 4.32656 30.1667 5.96296 30.1667H26.7037C28.3401 30.1667 29.6667 28.8401 29.6667 27.2037V6.46296C29.6667 4.82656 28.3401 3.5 26.7037 3.5Z" fill="#A7A5A4"/>
<path d="M10.7779 12.3889C12.0052 12.3889 13.0001 11.3939 13.0001 10.1666C13.0001 8.93935 12.0052 7.94443 10.7779 7.94443C9.55059 7.94443 8.55566 8.93935 8.55566 10.1666C8.55566 11.3939 9.55059 12.3889 10.7779 12.3889Z" fill="#F3F3F3"/>
<path d="M26.8889 25.7222H5.77783L12.0541 17.1667L14.3364 20.2222L18.901 13.5L26.8889 25.7222Z" fill="#F3F3F3"/>
<path d="M29.6662 37.5742C33.7572 37.5742 37.0736 34.2578 37.0736 30.1668C37.0736 26.0758 33.7572 22.7594 29.6662 22.7594C25.5752 22.7594 22.2588 26.0758 22.2588 30.1668C22.2588 34.2578 25.5752 37.5742 29.6662 37.5742Z" fill="#81807F" stroke="#F3F3F3" stroke-linecap="round" stroke-linejoin="round"/>
<path d="M29.6665 27.2039V33.1298" stroke="#F3F3F3" stroke-width="1.5" stroke-linecap="round" stroke-linejoin="round"/>
<path d="M26.7034 30.1667H32.6293" stroke="#F3F3F3" stroke-width="1.5" stroke-linecap="round" stroke-linejoin="round"/>
</svg>
