<svg width="24" height="24" viewBox="0 0 24 24" fill="none" xmlns="http://www.w3.org/2000/svg">
<path d="M14 2H6C5.46957 2 4.96086 2.21071 4.58579 2.58579C4.21071 2.96086 4 3.46957 4 4V20C4 20.5304 4.21071 21.0391 4.58579 21.4142C4.96086 21.7893 5.46957 22 6 22H18C18.5304 22 19.0391 21.7893 19.4142 21.4142C19.7893 21.0391 20 20.5304 20 20V8L14 2Z" stroke="#A7A5A4" stroke-width="1.5" stroke-linecap="round" stroke-linejoin="round"/>
<path d="M14 2V6C14 7.10457 14.8954 8 16 8H20" stroke="#A7A5A4" stroke-width="1.5" stroke-linecap="round" stroke-linejoin="round"/>
<path d="M7 16L7 19L14 19L14 16L7 16Z" stroke="#A7A5A4" stroke-width="1.5" stroke-linecap="round" stroke-linejoin="round"/>
<path d="M7 13L7 16L17 16L17 13L7 13Z" stroke="#A7A5A4" stroke-width="1.5" stroke-linecap="round" stroke-linejoin="round"/>
<path d="M7 10L7 13L12 13L12 10L7 10Z" stroke="#A7A5A4" stroke-width="1.5" stroke-linecap="round" stroke-linejoin="round"/>
</svg>
