<svg width="36" height="37" viewBox="0 0 36 37" fill="none" xmlns="http://www.w3.org/2000/svg">
<rect y="0.201172" width="36" height="36" rx="18" fill="white" fill-opacity="0.2"/>
<path d="M11.05 20.9372C12.255 20.9372 13.2318 19.9604 13.2318 18.7554C13.2318 17.5504 12.255 16.5736 11.05 16.5736C9.845 16.5736 8.86816 17.5504 8.86816 18.7554C8.86816 19.9604 9.845 20.9372 11.05 20.9372Z" stroke="white" stroke-width="1.5" stroke-linecap="round" stroke-linejoin="round"/>
<path d="M21.9592 14.3918C23.1641 14.3918 24.141 13.4149 24.141 12.21C24.141 11.005 23.1641 10.0281 21.9592 10.0281C20.7542 10.0281 19.7773 11.005 19.7773 12.21C19.7773 13.4149 20.7542 14.3918 21.9592 14.3918Z" stroke="white" stroke-width="1.5" stroke-linecap="round" stroke-linejoin="round"/>
<path d="M21.9592 27.4827C23.1641 27.4827 24.141 26.5059 24.141 25.3009C24.141 24.0959 23.1641 23.1191 21.9592 23.1191C20.7542 23.1191 19.7773 24.0959 19.7773 25.3009C19.7773 26.5059 20.7542 27.4827 21.9592 27.4827Z" stroke="white" stroke-width="1.5" stroke-linecap="round" stroke-linejoin="round"/>
<path d="M20.0519 13.3009L13.2319 17.2809" stroke="white" stroke-width="1.5" stroke-linecap="round" stroke-linejoin="round"/>
<path d="M20.0519 23.8263L13.2319 19.8463" stroke="white" stroke-width="1.5" stroke-linecap="round" stroke-linejoin="round"/>
</svg>
