<svg width="24" height="24" viewBox="0 0 24 24" fill="none" xmlns="http://www.w3.org/2000/svg">
<path d="M14 2H6C5.46957 2 4.96086 2.21071 4.58579 2.58579C4.21071 2.96086 4 3.46957 4 4V20C4 20.5304 4.21071 21.0391 4.58579 21.4142C4.96086 21.7893 5.46957 22 6 22H18C18.5304 22 19.0391 21.7893 19.4142 21.4142C19.7893 21.0391 20 20.5304 20 20V8L14 2Z" fill="#F96258" stroke="#F96258" stroke-width="1.5" stroke-linecap="round" stroke-linejoin="round"/>
<path d="M14 1.28577V5.99998C14 7.10455 14.8954 7.99998 16 7.99998H20.5714" stroke="white" stroke-width="1.5" stroke-linecap="round" stroke-linejoin="round"/>
<path d="M6.14282 17L6.14282 18C6.14282 18.5523 6.59054 19 7.14282 19L13 19C13.5522 19 14 18.5523 14 18L14 17C14 16.4477 13.5522 16 13 16L7.14282 16C6.59054 16 6.14282 16.4477 6.14282 17Z" fill="white" stroke="#F96258" stroke-width="1.5" stroke-linecap="round" stroke-linejoin="round"/>
<path d="M6.14282 14L6.14282 15C6.14282 15.5523 6.59054 16 7.14282 16L16 16C16.5522 16 17 15.5523 17 15L17 14C17 13.4477 16.5522 13 16 13L7.14282 13C6.59054 13 6.14282 13.4477 6.14282 14Z" fill="white" stroke="#F96258" stroke-width="1.5" stroke-linecap="round" stroke-linejoin="round"/>
<path d="M6.14282 11L6.14282 12C6.14282 12.5523 6.59054 13 7.14282 13L11 13C11.5522 13 12 12.5523 12 12L12 11C12 10.4477 11.5523 10 11 10L7.14282 10C6.59054 10 6.14282 10.4477 6.14282 11Z" fill="white" stroke="#F96258" stroke-width="1.5" stroke-linecap="round" stroke-linejoin="round"/>
</svg>
