<svg width="183" height="5" viewBox="0 0 183 5" fill="none" xmlns="http://www.w3.org/2000/svg">
<path d="M1.79199 3.0596C10.5389 3.0596 19.8107 3.93652 28.3795 3.34372C34.3604 2.92995 39.4871 1.78108 45.7386 1.78108C48.2657 1.78108 50.8115 1.74913 53.335 1.79123C57.1622 1.85507 60.8618 2.43978 64.6407 2.65372C72.0608 3.07381 79.8466 2.87695 87.341 2.87695C96.5193 2.87695 105.826 2.57259 114.967 2.28843C120.027 2.13114 123.71 2.18914 128.498 2.7349C133.824 3.34191 140.05 3.0596 145.62 3.0596C151.44 3.0596 157.189 4.07228 163.483 3.67857C169.583 3.29703 175.519 2.87695 181.792 2.87695" stroke="white" stroke-width="2" stroke-linecap="round"/>
</svg>
